<?xml version="1.0" standalone="no"?>
<!DOCTYPE svg PUBLIC "-//W3C//DTD SVG 20010904//EN"
 "http://www.w3.org/TR/2001/REC-SVG-20010904/DTD/svg10.dtd">
<svg version="1.0" xmlns="http://www.w3.org/2000/svg"
 width="60.000000pt" height="60.000000pt" viewBox="0 0 60.000000 60.000000"
 preserveAspectRatio="xMidYMid meet">

<g transform="translate(0.000000,60.000000) scale(0.100000,-0.100000)"
fill="#000000" stroke="none">
<path d="M300 539 c0 -5 5 -7 10 -4 6 3 10 8 10 11 0 2 -4 4 -10 4 -5 0 -10
-5 -10 -11z"/>
<path d="M220 519 c0 -11 4 -18 10 -14 5 3 7 12 3 20 -7 21 -13 19 -13 -6z"/>
<path d="M356 527 c3 -10 9 -15 12 -12 3 3 0 11 -7 18 -10 9 -11 8 -5 -6z"/>
<path d="M150 480 c0 -5 5 -10 10 -10 6 0 10 5 10 10 0 6 -4 10 -10 10 -5 0
-10 -4 -10 -10z"/>
<path d="M405 480 c4 -6 11 -8 16 -5 14 9 11 15 -7 15 -8 0 -12 -5 -9 -10z"/>
<path d="M110 430 c0 -5 4 -10 9 -10 6 0 13 5 16 10 3 6 -1 10 -9 10 -9 0 -16
-4 -16 -10z"/>
<path d="M244 345 c-9 -61 -20 -65 -28 -10 -7 42 -9 45 -37 45 l-29 0 0 -75
c0 -60 3 -75 15 -75 11 0 15 12 15 46 0 54 15 50 25 -6 10 -59 38 -55 53 8
l11 47 -4 -52 -4 -53 40 2 c31 1 38 5 35 17 -2 9 -7 28 -10 44 -4 15 -11 27
-16 27 -6 0 -10 18 -10 40 0 36 -3 40 -24 40 -22 0 -26 -6 -32 -45z"/>
<path d="M350 305 l0 -85 45 0 c38 0 45 3 45 20 0 16 -7 20 -30 20 -20 0 -30
5 -30 15 0 9 9 15 25 15 16 0 25 6 25 15 0 9 -9 15 -25 15 -15 0 -25 6 -25 14
0 8 11 17 25 20 42 11 31 36 -15 36 l-40 0 0 -85z"/>
<path d="M80 361 c0 -16 28 -20 34 -5 4 9 -1 14 -14 14 -11 0 -20 -4 -20 -9z"/>
<path d="M487 363 c-12 -11 -8 -23 8 -23 8 0 15 7 15 15 0 16 -12 20 -23 8z"/>
</g>
</svg>
